<mxfile host="Electron" agent="Mozilla/5.0 (Windows NT 10.0; Win64; x64) AppleWebKit/537.36 (KHTML, like Gecko) draw.io/24.7.17 Chrome/128.0.6613.36 Electron/32.0.1 Safari/537.36" version="24.7.17">
  <diagram name="第 1 页" id="ZIKJRu48pLDxb10l1RiC">
    <mxGraphModel dx="2062" dy="2013" grid="1" gridSize="10" guides="1" tooltips="1" connect="1" arrows="1" fold="1" page="1" pageScale="1" pageWidth="827" pageHeight="1169" math="0" shadow="0">
      <root>
        <mxCell id="0" />
        <mxCell id="1" parent="0" />
        <mxCell id="VW2L2mz2OAnhj1RZ-I4j-17" value="" style="rounded=0;whiteSpace=wrap;html=1;" parent="1" vertex="1">
          <mxGeometry x="-413" y="1250" width="135" height="190" as="geometry" />
        </mxCell>
        <mxCell id="fptTHiW4tIRju2CYhG-I-45" value="" style="rounded=0;whiteSpace=wrap;html=1;" parent="1" vertex="1">
          <mxGeometry x="-490" y="-270" width="460" height="360" as="geometry" />
        </mxCell>
        <mxCell id="u2NYQz7fPt760Bf2LZsO-53" value="" style="rounded=0;whiteSpace=wrap;html=1;" parent="1" vertex="1">
          <mxGeometry x="560" y="-350" width="820" height="470" as="geometry" />
        </mxCell>
        <mxCell id="u2NYQz7fPt760Bf2LZsO-80" value="" style="rounded=0;whiteSpace=wrap;html=1;fillColor=#f5f5f5;fontColor=#333333;strokeColor=#666666;" parent="1" vertex="1">
          <mxGeometry x="1140" y="-100" width="190" height="60" as="geometry" />
        </mxCell>
        <mxCell id="u2NYQz7fPt760Bf2LZsO-77" value="" style="rounded=0;whiteSpace=wrap;html=1;fillColor=#f5f5f5;fontColor=#333333;strokeColor=#666666;" parent="1" vertex="1">
          <mxGeometry x="1140" y="-320" width="190" height="60" as="geometry" />
        </mxCell>
        <mxCell id="u2NYQz7fPt760Bf2LZsO-72" value="" style="rounded=0;whiteSpace=wrap;html=1;fillColor=#f5f5f5;fontColor=#333333;strokeColor=#666666;" parent="1" vertex="1">
          <mxGeometry x="570" y="-320" width="530" height="420" as="geometry" />
        </mxCell>
        <mxCell id="u2NYQz7fPt760Bf2LZsO-1" value="" style="rounded=0;whiteSpace=wrap;html=1;" parent="1" vertex="1">
          <mxGeometry x="10" y="150" width="350" height="360" as="geometry" />
        </mxCell>
        <mxCell id="u2NYQz7fPt760Bf2LZsO-2" value="" style="rounded=0;whiteSpace=wrap;html=1;" parent="1" vertex="1">
          <mxGeometry x="520" y="170" width="170" height="70" as="geometry" />
        </mxCell>
        <mxCell id="u2NYQz7fPt760Bf2LZsO-3" value="" style="endArrow=classic;startArrow=classic;html=1;rounded=0;exitX=1;exitY=0.5;exitDx=0;exitDy=0;" parent="1" source="u2NYQz7fPt760Bf2LZsO-1" target="u2NYQz7fPt760Bf2LZsO-2" edge="1">
          <mxGeometry width="50" height="50" relative="1" as="geometry">
            <mxPoint x="410" y="310" as="sourcePoint" />
            <mxPoint x="460" y="260" as="targetPoint" />
          </mxGeometry>
        </mxCell>
        <mxCell id="u2NYQz7fPt760Bf2LZsO-4" value="node" style="text;html=1;align=center;verticalAlign=middle;whiteSpace=wrap;rounded=0;" parent="1" vertex="1">
          <mxGeometry x="155" y="110" width="60" height="30" as="geometry" />
        </mxCell>
        <mxCell id="u2NYQz7fPt760Bf2LZsO-5" value="node" style="text;html=1;align=center;verticalAlign=middle;whiteSpace=wrap;rounded=0;" parent="1" vertex="1">
          <mxGeometry x="580" y="130" width="60" height="30" as="geometry" />
        </mxCell>
        <mxCell id="u2NYQz7fPt760Bf2LZsO-6" value="" style="rounded=0;whiteSpace=wrap;html=1;" parent="1" vertex="1">
          <mxGeometry x="640" y="380" width="170" height="70" as="geometry" />
        </mxCell>
        <mxCell id="u2NYQz7fPt760Bf2LZsO-9" value="" style="endArrow=classic;startArrow=classic;html=1;rounded=0;entryX=1;entryY=1;entryDx=0;entryDy=0;exitX=0.5;exitY=0;exitDx=0;exitDy=0;" parent="1" source="u2NYQz7fPt760Bf2LZsO-6" target="u2NYQz7fPt760Bf2LZsO-2" edge="1">
          <mxGeometry width="50" height="50" relative="1" as="geometry">
            <mxPoint x="530" y="360" as="sourcePoint" />
            <mxPoint x="580" y="310" as="targetPoint" />
          </mxGeometry>
        </mxCell>
        <mxCell id="u2NYQz7fPt760Bf2LZsO-10" value="" style="endArrow=classic;startArrow=classic;html=1;rounded=0;entryX=0;entryY=0.5;entryDx=0;entryDy=0;exitX=1.008;exitY=0.784;exitDx=0;exitDy=0;exitPerimeter=0;" parent="1" source="u2NYQz7fPt760Bf2LZsO-1" target="u2NYQz7fPt760Bf2LZsO-6" edge="1">
          <mxGeometry width="50" height="50" relative="1" as="geometry">
            <mxPoint x="540" y="370" as="sourcePoint" />
            <mxPoint x="590" y="320" as="targetPoint" />
          </mxGeometry>
        </mxCell>
        <mxCell id="u2NYQz7fPt760Bf2LZsO-11" value="node" style="text;html=1;align=center;verticalAlign=middle;whiteSpace=wrap;rounded=0;" parent="1" vertex="1">
          <mxGeometry x="740" y="340" width="60" height="30" as="geometry" />
        </mxCell>
        <mxCell id="u2NYQz7fPt760Bf2LZsO-12" value="evm" style="rounded=0;whiteSpace=wrap;html=1;" parent="1" vertex="1">
          <mxGeometry x="35" y="200" width="120" height="120" as="geometry" />
        </mxCell>
        <mxCell id="u2NYQz7fPt760Bf2LZsO-13" value="区块链数据" style="rounded=0;whiteSpace=wrap;html=1;" parent="1" vertex="1">
          <mxGeometry x="210" y="200" width="120" height="120" as="geometry" />
        </mxCell>
        <mxCell id="u2NYQz7fPt760Bf2LZsO-20" value="客户端程序" style="rounded=0;whiteSpace=wrap;html=1;" parent="1" vertex="1">
          <mxGeometry x="120" y="390" width="120" height="75" as="geometry" />
        </mxCell>
        <mxCell id="u2NYQz7fPt760Bf2LZsO-22" style="edgeStyle=orthogonalEdgeStyle;rounded=0;orthogonalLoop=1;jettySize=auto;html=1;entryX=0.5;entryY=1;entryDx=0;entryDy=0;" parent="1" source="u2NYQz7fPt760Bf2LZsO-21" target="u2NYQz7fPt760Bf2LZsO-20" edge="1">
          <mxGeometry relative="1" as="geometry" />
        </mxCell>
        <mxCell id="u2NYQz7fPt760Bf2LZsO-21" value="调用方&lt;div&gt;（可以是钱包 or 代码）&lt;/div&gt;" style="rounded=0;whiteSpace=wrap;html=1;" parent="1" vertex="1">
          <mxGeometry x="120" y="610" width="120" height="75" as="geometry" />
        </mxCell>
        <mxCell id="u2NYQz7fPt760Bf2LZsO-24" value="" style="endArrow=classic;html=1;rounded=0;exitX=1;exitY=0;exitDx=0;exitDy=0;entryX=0.5;entryY=1;entryDx=0;entryDy=0;" parent="1" source="u2NYQz7fPt760Bf2LZsO-20" target="u2NYQz7fPt760Bf2LZsO-13" edge="1">
          <mxGeometry width="50" height="50" relative="1" as="geometry">
            <mxPoint x="210" y="400" as="sourcePoint" />
            <mxPoint x="260" y="350" as="targetPoint" />
          </mxGeometry>
        </mxCell>
        <mxCell id="u2NYQz7fPt760Bf2LZsO-25" value="" style="endArrow=classic;html=1;rounded=0;exitX=0.25;exitY=1;exitDx=0;exitDy=0;entryX=0.75;entryY=0;entryDx=0;entryDy=0;" parent="1" source="u2NYQz7fPt760Bf2LZsO-13" target="u2NYQz7fPt760Bf2LZsO-20" edge="1">
          <mxGeometry width="50" height="50" relative="1" as="geometry">
            <mxPoint x="390" y="490" as="sourcePoint" />
            <mxPoint x="440" y="440" as="targetPoint" />
          </mxGeometry>
        </mxCell>
        <mxCell id="u2NYQz7fPt760Bf2LZsO-26" value="" style="endArrow=classic;html=1;rounded=0;entryX=0.75;entryY=1;entryDx=0;entryDy=0;" parent="1" target="u2NYQz7fPt760Bf2LZsO-12" edge="1">
          <mxGeometry width="50" height="50" relative="1" as="geometry">
            <mxPoint x="160" y="390" as="sourcePoint" />
            <mxPoint x="210" y="340" as="targetPoint" />
          </mxGeometry>
        </mxCell>
        <mxCell id="u2NYQz7fPt760Bf2LZsO-27" value="" style="endArrow=classic;html=1;rounded=0;exitX=0.5;exitY=1;exitDx=0;exitDy=0;entryX=0;entryY=0;entryDx=0;entryDy=0;" parent="1" source="u2NYQz7fPt760Bf2LZsO-12" target="u2NYQz7fPt760Bf2LZsO-20" edge="1">
          <mxGeometry width="50" height="50" relative="1" as="geometry">
            <mxPoint x="100" y="410" as="sourcePoint" />
            <mxPoint x="150" y="360" as="targetPoint" />
          </mxGeometry>
        </mxCell>
        <mxCell id="u2NYQz7fPt760Bf2LZsO-28" value="2" style="ellipse;whiteSpace=wrap;html=1;aspect=fixed;fillColor=#dae8fc;strokeColor=#6c8ebf;" parent="1" vertex="1">
          <mxGeometry x="195" y="330" width="30" height="30" as="geometry" />
        </mxCell>
        <mxCell id="u2NYQz7fPt760Bf2LZsO-29" value="&lt;span style=&quot;color: rgba(0, 0, 0, 0); font-family: monospace; font-size: 0px; text-align: start; text-wrap: nowrap;&quot;&gt;%3CmxGraphModel%3E%3Croot%3E%3CmxCell%20id%3D%220%22%2F%3E%3CmxCell%20id%3D%221%22%20parent%3D%220%22%2F%3E%3CmxCell%20id%3D%222%22%20value%3D%221%22%20style%3D%22ellipse%3BwhiteSpace%3Dwrap%3Bhtml%3D1%3Baspect%3Dfixed%3BfillColor%3D%23dae8fc%3BstrokeColor%3D%236c8ebf%3B%22%20vertex%3D%221%22%20parent%3D%221%22%3E%3CmxGeometry%20x%3D%22520%22%20y%3D%22490%22%20width%3D%2240%22%20height%3D%2240%22%20as%3D%22geometry%22%2F%3E%3C%2FmxCell%3E%3C%2Froot%3E%3C%2FmxGraphModel%3E&lt;/span&gt;3" style="ellipse;whiteSpace=wrap;html=1;aspect=fixed;fillColor=#dae8fc;strokeColor=#6c8ebf;" parent="1" vertex="1">
          <mxGeometry x="150" y="340" width="30" height="30" as="geometry" />
        </mxCell>
        <mxCell id="u2NYQz7fPt760Bf2LZsO-30" value="1" style="ellipse;whiteSpace=wrap;html=1;aspect=fixed;fillColor=#dae8fc;strokeColor=#6c8ebf;" parent="1" vertex="1">
          <mxGeometry x="190" y="530" width="40" height="40" as="geometry" />
        </mxCell>
        <mxCell id="u2NYQz7fPt760Bf2LZsO-34" value="4" style="ellipse;whiteSpace=wrap;html=1;aspect=fixed;fillColor=#dae8fc;strokeColor=#6c8ebf;" parent="1" vertex="1">
          <mxGeometry x="70" y="340" width="30" height="30" as="geometry" />
        </mxCell>
        <mxCell id="u2NYQz7fPt760Bf2LZsO-35" value="5" style="ellipse;whiteSpace=wrap;html=1;aspect=fixed;fillColor=#dae8fc;strokeColor=#6c8ebf;" parent="1" vertex="1">
          <mxGeometry x="260" y="350" width="30" height="30" as="geometry" />
        </mxCell>
        <mxCell id="u2NYQz7fPt760Bf2LZsO-36" value="6" style="ellipse;whiteSpace=wrap;html=1;aspect=fixed;fillColor=#dae8fc;strokeColor=#6c8ebf;" parent="1" vertex="1">
          <mxGeometry x="490" y="380" width="30" height="30" as="geometry" />
        </mxCell>
        <mxCell id="u2NYQz7fPt760Bf2LZsO-45" value="ethererum workflow" style="swimlane;whiteSpace=wrap;html=1;" parent="1" vertex="1">
          <mxGeometry x="380" y="510" width="280" height="230" as="geometry" />
        </mxCell>
        <mxCell id="u2NYQz7fPt760Bf2LZsO-47" value="1. 链下调用方将交易信息结构发送给节点" style="text;html=1;align=center;verticalAlign=middle;whiteSpace=wrap;rounded=0;" parent="u2NYQz7fPt760Bf2LZsO-45" vertex="1">
          <mxGeometry x="4" y="30" width="256" height="30" as="geometry" />
        </mxCell>
        <mxCell id="u2NYQz7fPt760Bf2LZsO-48" value="2. 节点客户端程序从区块链中读取需要的合约信息" style="text;html=1;align=center;verticalAlign=middle;whiteSpace=wrap;rounded=0;" parent="u2NYQz7fPt760Bf2LZsO-45" vertex="1">
          <mxGeometry x="4" y="60" width="276" height="30" as="geometry" />
        </mxCell>
        <mxCell id="u2NYQz7fPt760Bf2LZsO-49" value="3. 客户端程序将合约信息和交易调用信息交给evm执行" style="text;html=1;align=center;verticalAlign=middle;whiteSpace=wrap;rounded=0;" parent="u2NYQz7fPt760Bf2LZsO-45" vertex="1">
          <mxGeometry x="4" y="90" width="276" height="30" as="geometry" />
        </mxCell>
        <mxCell id="u2NYQz7fPt760Bf2LZsO-50" value="4. 客户端程序获取evm的执行结果" style="text;html=1;align=center;verticalAlign=middle;whiteSpace=wrap;rounded=0;" parent="u2NYQz7fPt760Bf2LZsO-45" vertex="1">
          <mxGeometry x="4" y="120" width="276" height="30" as="geometry" />
        </mxCell>
        <mxCell id="u2NYQz7fPt760Bf2LZsO-51" value="5. 客户端程序将结果存储到区块链中（打包进下一个区块）" style="text;html=1;align=center;verticalAlign=middle;whiteSpace=wrap;rounded=0;" parent="u2NYQz7fPt760Bf2LZsO-45" vertex="1">
          <mxGeometry x="2" y="150" width="276" height="30" as="geometry" />
        </mxCell>
        <mxCell id="u2NYQz7fPt760Bf2LZsO-52" value="6. 节点间同步区块链数据" style="text;html=1;align=center;verticalAlign=middle;whiteSpace=wrap;rounded=0;" parent="u2NYQz7fPt760Bf2LZsO-45" vertex="1">
          <mxGeometry x="2" y="190" width="276" height="30" as="geometry" />
        </mxCell>
        <mxCell id="u2NYQz7fPt760Bf2LZsO-57" value="" style="endArrow=classic;html=1;rounded=0;exitX=0.5;exitY=0;exitDx=0;exitDy=0;entryX=-0.006;entryY=0.477;entryDx=0;entryDy=0;entryPerimeter=0;dashed=1;fillColor=#d5e8d4;strokeColor=#82b366;edgeStyle=orthogonalEdgeStyle;curved=1;" parent="1" source="u2NYQz7fPt760Bf2LZsO-13" target="u2NYQz7fPt760Bf2LZsO-72" edge="1">
          <mxGeometry width="50" height="50" relative="1" as="geometry">
            <mxPoint x="290" y="590" as="sourcePoint" />
            <mxPoint x="340" y="540" as="targetPoint" />
            <Array as="points">
              <mxPoint x="330" y="200" />
              <mxPoint x="330" y="30" />
              <mxPoint x="430" y="30" />
              <mxPoint x="430" y="-70" />
              <mxPoint x="523" y="-70" />
              <mxPoint x="523" y="-120" />
            </Array>
          </mxGeometry>
        </mxCell>
        <mxCell id="u2NYQz7fPt760Bf2LZsO-58" value="&lt;span style=&quot;text-align: center;&quot;&gt;区块链数据（https://learnblockchain.cn/books/geth/part1/block.html）&lt;/span&gt;" style="text;strokeColor=none;fillColor=none;align=left;verticalAlign=middle;spacingLeft=4;spacingRight=4;overflow=hidden;points=[[0,0.5],[1,0.5]];portConstraint=eastwest;rotatable=0;whiteSpace=wrap;html=1;" parent="1" vertex="1">
          <mxGeometry x="640" y="-390" width="380" height="30" as="geometry" />
        </mxCell>
        <mxCell id="u2NYQz7fPt760Bf2LZsO-59" value="" style="rounded=0;whiteSpace=wrap;html=1;" parent="1" vertex="1">
          <mxGeometry x="660" y="-240" width="140" height="300" as="geometry" />
        </mxCell>
        <mxCell id="u2NYQz7fPt760Bf2LZsO-60" value="" style="rounded=0;whiteSpace=wrap;html=1;" parent="1" vertex="1">
          <mxGeometry x="840" y="-240" width="140" height="300" as="geometry" />
        </mxCell>
        <mxCell id="u2NYQz7fPt760Bf2LZsO-63" style="edgeStyle=orthogonalEdgeStyle;rounded=0;orthogonalLoop=1;jettySize=auto;html=1;entryX=0;entryY=0.5;entryDx=0;entryDy=0;" parent="1" source="u2NYQz7fPt760Bf2LZsO-61" target="u2NYQz7fPt760Bf2LZsO-84" edge="1">
          <mxGeometry relative="1" as="geometry">
            <Array as="points">
              <mxPoint x="650" y="-90" />
              <mxPoint x="650" y="-205" />
            </Array>
          </mxGeometry>
        </mxCell>
        <mxCell id="u2NYQz7fPt760Bf2LZsO-61" value="\\\\\" style="rounded=0;whiteSpace=wrap;html=1;" parent="1" vertex="1">
          <mxGeometry x="575" y="-150" width="60" height="120" as="geometry" />
        </mxCell>
        <mxCell id="u2NYQz7fPt760Bf2LZsO-62" value="\\\\\" style="rounded=0;whiteSpace=wrap;html=1;" parent="1" vertex="1">
          <mxGeometry x="1010" y="-150" width="60" height="120" as="geometry" />
        </mxCell>
        <mxCell id="u2NYQz7fPt760Bf2LZsO-67" value="block N" style="text;html=1;align=center;verticalAlign=middle;whiteSpace=wrap;rounded=0;" parent="1" vertex="1">
          <mxGeometry x="575" y="-190" width="60" height="30" as="geometry" />
        </mxCell>
        <mxCell id="u2NYQz7fPt760Bf2LZsO-68" value="block N+1" style="text;html=1;align=center;verticalAlign=middle;whiteSpace=wrap;rounded=0;" parent="1" vertex="1">
          <mxGeometry x="695" y="-280" width="60" height="30" as="geometry" />
        </mxCell>
        <mxCell id="u2NYQz7fPt760Bf2LZsO-69" value="block N+2" style="text;html=1;align=center;verticalAlign=middle;whiteSpace=wrap;rounded=0;" parent="1" vertex="1">
          <mxGeometry x="880" y="-280" width="60" height="30" as="geometry" />
        </mxCell>
        <mxCell id="u2NYQz7fPt760Bf2LZsO-70" value="block N+3" style="text;html=1;align=center;verticalAlign=middle;whiteSpace=wrap;rounded=0;" parent="1" vertex="1">
          <mxGeometry x="1010" y="-200" width="60" height="30" as="geometry" />
        </mxCell>
        <mxCell id="u2NYQz7fPt760Bf2LZsO-73" value="blockChian" style="text;html=1;align=center;verticalAlign=middle;whiteSpace=wrap;rounded=0;" parent="1" vertex="1">
          <mxGeometry x="790" y="-310" width="60" height="30" as="geometry" />
        </mxCell>
        <mxCell id="u2NYQz7fPt760Bf2LZsO-74" value="状态树（stateRoot）" style="text;html=1;align=center;verticalAlign=middle;whiteSpace=wrap;rounded=0;" parent="1" vertex="1">
          <mxGeometry x="1180" y="-305" width="100" height="30" as="geometry" />
        </mxCell>
        <mxCell id="u2NYQz7fPt760Bf2LZsO-78" value="" style="rounded=0;whiteSpace=wrap;html=1;fillColor=#f5f5f5;fontColor=#333333;strokeColor=#666666;" parent="1" vertex="1">
          <mxGeometry x="1140" y="-210" width="190" height="60" as="geometry" />
        </mxCell>
        <mxCell id="u2NYQz7fPt760Bf2LZsO-79" value="交易树（transactionRoot）" style="text;html=1;align=center;verticalAlign=middle;whiteSpace=wrap;rounded=0;" parent="1" vertex="1">
          <mxGeometry x="1185" y="-85" width="100" height="30" as="geometry" />
        </mxCell>
        <mxCell id="u2NYQz7fPt760Bf2LZsO-81" value="回执树（receiptRoot）" style="text;html=1;align=center;verticalAlign=middle;whiteSpace=wrap;rounded=0;" parent="1" vertex="1">
          <mxGeometry x="1185" y="-195" width="100" height="30" as="geometry" />
        </mxCell>
        <mxCell id="u2NYQz7fPt760Bf2LZsO-84" value="parentHash" style="text;html=1;align=center;verticalAlign=middle;whiteSpace=wrap;rounded=0;fillColor=#d5e8d4;strokeColor=#82b366;" parent="1" vertex="1">
          <mxGeometry x="690" y="-220" width="90" height="30" as="geometry" />
        </mxCell>
        <mxCell id="u2NYQz7fPt760Bf2LZsO-89" style="edgeStyle=orthogonalEdgeStyle;rounded=0;orthogonalLoop=1;jettySize=auto;html=1;entryX=0;entryY=0.5;entryDx=0;entryDy=0;" parent="1" source="u2NYQz7fPt760Bf2LZsO-86" target="u2NYQz7fPt760Bf2LZsO-87" edge="1">
          <mxGeometry relative="1" as="geometry" />
        </mxCell>
        <mxCell id="u2NYQz7fPt760Bf2LZsO-86" value="blockHash" style="text;html=1;align=center;verticalAlign=middle;whiteSpace=wrap;rounded=0;fillColor=#dae8fc;strokeColor=#6c8ebf;" parent="1" vertex="1">
          <mxGeometry x="690" y="-180" width="90" height="30" as="geometry" />
        </mxCell>
        <mxCell id="u2NYQz7fPt760Bf2LZsO-87" value="parentHash" style="text;html=1;align=center;verticalAlign=middle;whiteSpace=wrap;rounded=0;fillColor=#d5e8d4;strokeColor=#82b366;" parent="1" vertex="1">
          <mxGeometry x="870" y="-220" width="90" height="30" as="geometry" />
        </mxCell>
        <mxCell id="u2NYQz7fPt760Bf2LZsO-90" style="edgeStyle=orthogonalEdgeStyle;rounded=0;orthogonalLoop=1;jettySize=auto;html=1;entryX=0;entryY=0.25;entryDx=0;entryDy=0;" parent="1" source="u2NYQz7fPt760Bf2LZsO-88" target="u2NYQz7fPt760Bf2LZsO-62" edge="1">
          <mxGeometry relative="1" as="geometry">
            <Array as="points">
              <mxPoint x="990" y="-165" />
              <mxPoint x="990" y="-120" />
            </Array>
          </mxGeometry>
        </mxCell>
        <mxCell id="u2NYQz7fPt760Bf2LZsO-88" value="blockHash" style="text;html=1;align=center;verticalAlign=middle;whiteSpace=wrap;rounded=0;fillColor=#dae8fc;strokeColor=#6c8ebf;" parent="1" vertex="1">
          <mxGeometry x="870" y="-180" width="90" height="30" as="geometry" />
        </mxCell>
        <mxCell id="u2NYQz7fPt760Bf2LZsO-91" value="" style="endArrow=none;html=1;rounded=0;exitX=0;exitY=0.75;exitDx=0;exitDy=0;entryX=1;entryY=0.75;entryDx=0;entryDy=0;" parent="1" source="u2NYQz7fPt760Bf2LZsO-59" target="u2NYQz7fPt760Bf2LZsO-59" edge="1">
          <mxGeometry width="50" height="50" relative="1" as="geometry">
            <mxPoint x="720" y="40" as="sourcePoint" />
            <mxPoint x="770" y="-10" as="targetPoint" />
          </mxGeometry>
        </mxCell>
        <mxCell id="u2NYQz7fPt760Bf2LZsO-92" value="" style="endArrow=none;html=1;rounded=0;exitX=0;exitY=0.75;exitDx=0;exitDy=0;entryX=1;entryY=0.75;entryDx=0;entryDy=0;" parent="1" source="u2NYQz7fPt760Bf2LZsO-60" target="u2NYQz7fPt760Bf2LZsO-60" edge="1">
          <mxGeometry width="50" height="50" relative="1" as="geometry">
            <mxPoint x="920" y="10" as="sourcePoint" />
            <mxPoint x="970" y="-40" as="targetPoint" />
          </mxGeometry>
        </mxCell>
        <mxCell id="u2NYQz7fPt760Bf2LZsO-93" value="stateRoot" style="text;html=1;align=center;verticalAlign=middle;whiteSpace=wrap;rounded=0;fillColor=#f8cecc;strokeColor=#b85450;" parent="1" vertex="1">
          <mxGeometry x="690" y="-140" width="90" height="30" as="geometry" />
        </mxCell>
        <mxCell id="u2NYQz7fPt760Bf2LZsO-94" value="receiptRoot" style="text;html=1;align=center;verticalAlign=middle;whiteSpace=wrap;rounded=0;fillColor=#f8cecc;strokeColor=#b85450;" parent="1" vertex="1">
          <mxGeometry x="690" y="-100" width="90" height="30" as="geometry" />
        </mxCell>
        <mxCell id="u2NYQz7fPt760Bf2LZsO-95" value="transactionRoot" style="text;html=1;align=center;verticalAlign=middle;whiteSpace=wrap;rounded=0;fillColor=#f8cecc;strokeColor=#b85450;" parent="1" vertex="1">
          <mxGeometry x="690" y="-60" width="90" height="30" as="geometry" />
        </mxCell>
        <mxCell id="u2NYQz7fPt760Bf2LZsO-96" value="stateRoot" style="text;html=1;align=center;verticalAlign=middle;whiteSpace=wrap;rounded=0;fillColor=#f8cecc;strokeColor=#b85450;" parent="1" vertex="1">
          <mxGeometry x="870" y="-140" width="90" height="30" as="geometry" />
        </mxCell>
        <mxCell id="u2NYQz7fPt760Bf2LZsO-97" value="receiptRoot" style="text;html=1;align=center;verticalAlign=middle;whiteSpace=wrap;rounded=0;fillColor=#f8cecc;strokeColor=#b85450;" parent="1" vertex="1">
          <mxGeometry x="870" y="-100" width="90" height="30" as="geometry" />
        </mxCell>
        <mxCell id="u2NYQz7fPt760Bf2LZsO-98" value="transactionRoot" style="text;html=1;align=center;verticalAlign=middle;whiteSpace=wrap;rounded=0;fillColor=#f8cecc;strokeColor=#b85450;" parent="1" vertex="1">
          <mxGeometry x="870" y="-60" width="90" height="30" as="geometry" />
        </mxCell>
        <mxCell id="u2NYQz7fPt760Bf2LZsO-99" value="" style="endArrow=classic;html=1;rounded=0;exitX=1;exitY=0.5;exitDx=0;exitDy=0;entryX=0;entryY=0.5;entryDx=0;entryDy=0;dashed=1;fillColor=#e1d5e7;strokeColor=#9673a6;edgeStyle=orthogonalEdgeStyle;curved=1;" parent="1" source="u2NYQz7fPt760Bf2LZsO-96" target="u2NYQz7fPt760Bf2LZsO-77" edge="1">
          <mxGeometry width="50" height="50" relative="1" as="geometry">
            <mxPoint x="1140" y="20" as="sourcePoint" />
            <mxPoint x="1190" y="-30" as="targetPoint" />
            <Array as="points">
              <mxPoint x="960" y="-210" />
              <mxPoint x="1110" y="-210" />
              <mxPoint x="1110" y="-290" />
            </Array>
          </mxGeometry>
        </mxCell>
        <mxCell id="u2NYQz7fPt760Bf2LZsO-100" value="" style="endArrow=classic;html=1;rounded=0;exitX=1;exitY=0.5;exitDx=0;exitDy=0;entryX=0.011;entryY=0.625;entryDx=0;entryDy=0;dashed=1;fillColor=#e1d5e7;strokeColor=#9673a6;edgeStyle=orthogonalEdgeStyle;curved=1;entryPerimeter=0;" parent="1" source="u2NYQz7fPt760Bf2LZsO-97" target="u2NYQz7fPt760Bf2LZsO-78" edge="1">
          <mxGeometry width="50" height="50" relative="1" as="geometry">
            <mxPoint x="970" y="-85" as="sourcePoint" />
            <mxPoint x="1150" y="-250" as="targetPoint" />
            <Array as="points">
              <mxPoint x="970" y="-85" />
              <mxPoint x="970" y="-160" />
              <mxPoint x="1120" y="-160" />
              <mxPoint x="1120" y="-172" />
            </Array>
          </mxGeometry>
        </mxCell>
        <mxCell id="u2NYQz7fPt760Bf2LZsO-101" value="" style="endArrow=classic;html=1;rounded=0;exitX=1;exitY=0.5;exitDx=0;exitDy=0;entryX=0;entryY=0.5;entryDx=0;entryDy=0;dashed=1;fillColor=#e1d5e7;strokeColor=#9673a6;edgeStyle=orthogonalEdgeStyle;curved=1;" parent="1" source="u2NYQz7fPt760Bf2LZsO-98" target="u2NYQz7fPt760Bf2LZsO-80" edge="1">
          <mxGeometry width="50" height="50" relative="1" as="geometry">
            <mxPoint x="970" y="-30" as="sourcePoint" />
            <mxPoint x="1152" y="-117" as="targetPoint" />
            <Array as="points">
              <mxPoint x="960" y="-50" />
              <mxPoint x="980" y="-50" />
              <mxPoint x="980" y="-70" />
            </Array>
          </mxGeometry>
        </mxCell>
        <mxCell id="u2NYQz7fPt760Bf2LZsO-102" value="1. 详细的所有账户，交易，回执信息都存在树中，不是区块里&lt;div&gt;2. 区块里只存了树根的hash&lt;/div&gt;&lt;div&gt;3. 树存在节点本地，但也会和blockChain一起在全网同步&lt;/div&gt;" style="rounded=0;whiteSpace=wrap;html=1;" parent="1" vertex="1">
          <mxGeometry x="1130" width="210" height="100" as="geometry" />
        </mxCell>
        <mxCell id="u2NYQz7fPt760Bf2LZsO-103" value="new tnxs" style="rounded=0;whiteSpace=wrap;html=1;fillColor=#fff2cc;strokeColor=#d6b656;" parent="1" vertex="1">
          <mxGeometry x="690" width="90" height="40" as="geometry" />
        </mxCell>
        <mxCell id="u2NYQz7fPt760Bf2LZsO-104" value="new tnxs" style="rounded=0;whiteSpace=wrap;html=1;fillColor=#fff2cc;strokeColor=#d6b656;" parent="1" vertex="1">
          <mxGeometry x="870" width="90" height="40" as="geometry" />
        </mxCell>
        <mxCell id="fptTHiW4tIRju2CYhG-I-1" value="" style="rounded=0;whiteSpace=wrap;html=1;" parent="1" vertex="1">
          <mxGeometry x="1450" y="-350" width="450" height="200" as="geometry" />
        </mxCell>
        <mxCell id="fptTHiW4tIRju2CYhG-I-6" value="" style="endArrow=none;html=1;rounded=0;entryX=0.5;entryY=0;entryDx=0;entryDy=0;exitX=0.5;exitY=1;exitDx=0;exitDy=0;" parent="1" source="fptTHiW4tIRju2CYhG-I-1" target="fptTHiW4tIRju2CYhG-I-1" edge="1">
          <mxGeometry width="50" height="50" relative="1" as="geometry">
            <mxPoint x="1710" y="-70" as="sourcePoint" />
            <mxPoint x="1760" y="-120" as="targetPoint" />
          </mxGeometry>
        </mxCell>
        <mxCell id="fptTHiW4tIRju2CYhG-I-7" value="" style="endArrow=classic;html=1;rounded=0;exitX=1;exitY=0.5;exitDx=0;exitDy=0;entryX=0;entryY=0.25;entryDx=0;entryDy=0;dashed=1;fillColor=#e1d5e7;strokeColor=#9673a6;edgeStyle=orthogonalEdgeStyle;curved=1;" parent="1" source="u2NYQz7fPt760Bf2LZsO-77" target="fptTHiW4tIRju2CYhG-I-1" edge="1">
          <mxGeometry width="50" height="50" relative="1" as="geometry">
            <mxPoint x="1370" y="-150" as="sourcePoint" />
            <mxPoint x="1550" y="-315" as="targetPoint" />
            <Array as="points">
              <mxPoint x="1370" y="-290" />
              <mxPoint x="1370" y="-300" />
            </Array>
          </mxGeometry>
        </mxCell>
        <mxCell id="fptTHiW4tIRju2CYhG-I-8" value="EOA(External Owned Account)" style="text;html=1;align=center;verticalAlign=middle;whiteSpace=wrap;rounded=0;" parent="1" vertex="1">
          <mxGeometry x="1484" y="-340" width="170" height="30" as="geometry" />
        </mxCell>
        <mxCell id="fptTHiW4tIRju2CYhG-I-9" value="Contract Account" style="text;html=1;align=center;verticalAlign=middle;whiteSpace=wrap;rounded=0;" parent="1" vertex="1">
          <mxGeometry x="1730" y="-340" width="120" height="30" as="geometry" />
        </mxCell>
        <mxCell id="fptTHiW4tIRju2CYhG-I-10" value="" style="endArrow=none;html=1;rounded=0;exitX=0;exitY=0.25;exitDx=0;exitDy=0;entryX=1;entryY=0.25;entryDx=0;entryDy=0;" parent="1" source="fptTHiW4tIRju2CYhG-I-1" target="fptTHiW4tIRju2CYhG-I-1" edge="1">
          <mxGeometry width="50" height="50" relative="1" as="geometry">
            <mxPoint x="1590" y="-80" as="sourcePoint" />
            <mxPoint x="1640" y="-130" as="targetPoint" />
          </mxGeometry>
        </mxCell>
        <mxCell id="fptTHiW4tIRju2CYhG-I-11" value="" style="endArrow=none;html=1;rounded=0;exitX=0;exitY=0.25;exitDx=0;exitDy=0;entryX=1;entryY=0.25;entryDx=0;entryDy=0;" parent="1" edge="1">
          <mxGeometry width="50" height="50" relative="1" as="geometry">
            <mxPoint x="1450" y="-230" as="sourcePoint" />
            <mxPoint x="1900" y="-230" as="targetPoint" />
          </mxGeometry>
        </mxCell>
        <mxCell id="fptTHiW4tIRju2CYhG-I-12" value="" style="endArrow=none;html=1;rounded=0;exitX=0;exitY=0.25;exitDx=0;exitDy=0;entryX=1;entryY=0.25;entryDx=0;entryDy=0;" parent="1" edge="1">
          <mxGeometry width="50" height="50" relative="1" as="geometry">
            <mxPoint x="1450" y="-265.5" as="sourcePoint" />
            <mxPoint x="1900" y="-265.5" as="targetPoint" />
          </mxGeometry>
        </mxCell>
        <mxCell id="fptTHiW4tIRju2CYhG-I-13" value="" style="endArrow=none;html=1;rounded=0;exitX=0;exitY=0.25;exitDx=0;exitDy=0;entryX=1;entryY=0.25;entryDx=0;entryDy=0;" parent="1" edge="1">
          <mxGeometry width="50" height="50" relative="1" as="geometry">
            <mxPoint x="1450" y="-191" as="sourcePoint" />
            <mxPoint x="1900" y="-191" as="targetPoint" />
          </mxGeometry>
        </mxCell>
        <mxCell id="fptTHiW4tIRju2CYhG-I-14" value="nounce" style="text;html=1;align=center;verticalAlign=middle;whiteSpace=wrap;rounded=0;fillColor=#dae8fc;strokeColor=#6c8ebf;" parent="1" vertex="1">
          <mxGeometry x="1530" y="-300" width="60" height="30" as="geometry" />
        </mxCell>
        <mxCell id="fptTHiW4tIRju2CYhG-I-15" value="balance" style="text;html=1;align=center;verticalAlign=middle;whiteSpace=wrap;rounded=0;fillColor=#d5e8d4;strokeColor=#82b366;" parent="1" vertex="1">
          <mxGeometry x="1530" y="-265" width="60" height="30" as="geometry" />
        </mxCell>
        <mxCell id="fptTHiW4tIRju2CYhG-I-16" value="codeHash" style="text;html=1;align=center;verticalAlign=middle;whiteSpace=wrap;rounded=0;fillColor=#ffe6cc;strokeColor=#d79b00;" parent="1" vertex="1">
          <mxGeometry x="1530" y="-230" width="60" height="30" as="geometry" />
        </mxCell>
        <mxCell id="fptTHiW4tIRju2CYhG-I-17" value="storage" style="text;html=1;align=center;verticalAlign=middle;whiteSpace=wrap;rounded=0;fillColor=#fff2cc;strokeColor=#d6b656;" parent="1" vertex="1">
          <mxGeometry x="1530" y="-190" width="60" height="30" as="geometry" />
        </mxCell>
        <mxCell id="fptTHiW4tIRju2CYhG-I-18" value="nounce" style="text;html=1;align=center;verticalAlign=middle;whiteSpace=wrap;rounded=0;fillColor=#dae8fc;strokeColor=#6c8ebf;" parent="1" vertex="1">
          <mxGeometry x="1760" y="-300" width="60" height="30" as="geometry" />
        </mxCell>
        <mxCell id="fptTHiW4tIRju2CYhG-I-19" value="balance" style="text;html=1;align=center;verticalAlign=middle;whiteSpace=wrap;rounded=0;fillColor=#d5e8d4;strokeColor=#82b366;" parent="1" vertex="1">
          <mxGeometry x="1760" y="-265" width="60" height="30" as="geometry" />
        </mxCell>
        <mxCell id="fptTHiW4tIRju2CYhG-I-20" value="codeHash" style="text;html=1;align=center;verticalAlign=middle;whiteSpace=wrap;rounded=0;fillColor=#ffe6cc;strokeColor=#d79b00;" parent="1" vertex="1">
          <mxGeometry x="1760" y="-230" width="60" height="30" as="geometry" />
        </mxCell>
        <mxCell id="fptTHiW4tIRju2CYhG-I-21" value="storage" style="text;html=1;align=center;verticalAlign=middle;whiteSpace=wrap;rounded=0;fillColor=#fff2cc;strokeColor=#d6b656;" parent="1" vertex="1">
          <mxGeometry x="1760" y="-190" width="60" height="30" as="geometry" />
        </mxCell>
        <mxCell id="fptTHiW4tIRju2CYhG-I-22" value="1. 以太坊世界状态是所有&lt;font color=&quot;#ff3333&quot;&gt;账户&lt;/font&gt;状态的集合&lt;div&gt;2. &lt;font color=&quot;#ff3333&quot;&gt;balance和storage是账户的状态关键&lt;/font&gt;&lt;/div&gt;" style="rounded=0;whiteSpace=wrap;html=1;" parent="1" vertex="1">
          <mxGeometry x="1505" y="-120" width="315" height="60" as="geometry" />
        </mxCell>
        <mxCell id="fptTHiW4tIRju2CYhG-I-23" value="&lt;div style=&quot;text-align: center;&quot;&gt;&lt;span style=&quot;background-color: initial;&quot;&gt;World State, Account structure&lt;/span&gt;&lt;/div&gt;" style="text;strokeColor=none;fillColor=none;align=left;verticalAlign=middle;spacingLeft=4;spacingRight=4;overflow=hidden;points=[[0,0.5],[1,0.5]];portConstraint=eastwest;rotatable=0;whiteSpace=wrap;html=1;" parent="1" vertex="1">
          <mxGeometry x="1572.5" y="-380" width="180" height="20" as="geometry" />
        </mxCell>
        <mxCell id="fptTHiW4tIRju2CYhG-I-25" value="" style="endArrow=classic;html=1;rounded=0;exitX=0;exitY=0;exitDx=0;exitDy=0;dashed=1;fillColor=#d5e8d4;strokeColor=#82b366;edgeStyle=orthogonalEdgeStyle;curved=1;" parent="1" source="u2NYQz7fPt760Bf2LZsO-12" edge="1">
          <mxGeometry width="50" height="50" relative="1" as="geometry">
            <mxPoint x="-5.759999999999998" y="207.66" as="sourcePoint" />
            <mxPoint x="-149" y="90" as="targetPoint" />
            <Array as="points">
              <mxPoint x="35" y="208" />
              <mxPoint x="-41" y="208" />
              <mxPoint x="-41" y="198" />
              <mxPoint x="-80" y="198" />
              <mxPoint x="-80" y="158" />
              <mxPoint x="-130" y="158" />
              <mxPoint x="-130" y="110" />
              <mxPoint x="-149" y="110" />
            </Array>
          </mxGeometry>
        </mxCell>
        <mxCell id="fptTHiW4tIRju2CYhG-I-26" value="&lt;span style=&quot;text-align: center;&quot;&gt;evm structure&lt;/span&gt;" style="text;strokeColor=none;fillColor=none;align=left;verticalAlign=middle;spacingLeft=4;spacingRight=4;overflow=hidden;points=[[0,0.5],[1,0.5]];portConstraint=eastwest;rotatable=0;whiteSpace=wrap;html=1;" parent="1" vertex="1">
          <mxGeometry x="-300" y="-340" width="90" height="30" as="geometry" />
        </mxCell>
        <mxCell id="fptTHiW4tIRju2CYhG-I-27" value="1. evm是一个封闭的环境,不可访问区块链数据以外的数据(以太坊网络与外界网络隔离&lt;span style=&quot;background-color: initial;&quot;&gt;)&lt;/span&gt;&lt;div&gt;&lt;span style=&quot;background-color: initial;&quot;&gt;2. 图灵死机问题-&amp;gt;gas&lt;/span&gt;&lt;/div&gt;&lt;div&gt;&lt;span style=&quot;background-color: initial;&quot;&gt;3. 区块gas limit 3000w&lt;/span&gt;&lt;/div&gt;&lt;div&gt;&lt;span style=&quot;background-color: initial;&quot;&gt;4. evm是基于栈的虚拟机&lt;/span&gt;&lt;/div&gt;" style="rounded=0;whiteSpace=wrap;html=1;" parent="1" vertex="1">
          <mxGeometry x="-490" y="130" width="320" height="100" as="geometry" />
        </mxCell>
        <mxCell id="fptTHiW4tIRju2CYhG-I-28" value="input data" style="rounded=0;whiteSpace=wrap;html=1;" parent="1" vertex="1">
          <mxGeometry x="-660" y="-240" width="110" height="40" as="geometry" />
        </mxCell>
        <mxCell id="fptTHiW4tIRju2CYhG-I-29" value="合约字节码" style="rounded=0;whiteSpace=wrap;html=1;" parent="1" vertex="1">
          <mxGeometry x="-660" y="-180" width="110" height="40" as="geometry" />
        </mxCell>
        <mxCell id="fptTHiW4tIRju2CYhG-I-30" value="操作指令集" style="rounded=0;whiteSpace=wrap;html=1;" parent="1" vertex="1">
          <mxGeometry x="-420" y="-230" width="110" height="40" as="geometry" />
        </mxCell>
        <mxCell id="fptTHiW4tIRju2CYhG-I-31" value="" style="endArrow=classic;html=1;rounded=0;exitX=1;exitY=0.5;exitDx=0;exitDy=0;entryX=0;entryY=0.5;entryDx=0;entryDy=0;" parent="1" source="fptTHiW4tIRju2CYhG-I-29" target="fptTHiW4tIRju2CYhG-I-30" edge="1">
          <mxGeometry width="50" height="50" relative="1" as="geometry">
            <mxPoint x="-520" y="-140" as="sourcePoint" />
            <mxPoint x="-470" y="-190" as="targetPoint" />
          </mxGeometry>
        </mxCell>
        <mxCell id="fptTHiW4tIRju2CYhG-I-32" value="" style="endArrow=classic;html=1;rounded=0;exitX=1;exitY=0.5;exitDx=0;exitDy=0;entryX=0;entryY=0.5;entryDx=0;entryDy=0;" parent="1" source="fptTHiW4tIRju2CYhG-I-28" target="fptTHiW4tIRju2CYhG-I-30" edge="1">
          <mxGeometry width="50" height="50" relative="1" as="geometry">
            <mxPoint x="-430" y="-130" as="sourcePoint" />
            <mxPoint x="-380" y="-180" as="targetPoint" />
          </mxGeometry>
        </mxCell>
        <mxCell id="fptTHiW4tIRju2CYhG-I-33" value="" style="rounded=0;whiteSpace=wrap;html=1;" parent="1" vertex="1">
          <mxGeometry x="-420" y="-90" width="120" height="140" as="geometry" />
        </mxCell>
        <mxCell id="fptTHiW4tIRju2CYhG-I-34" value="" style="endArrow=none;html=1;rounded=0;exitX=0;exitY=0.75;exitDx=0;exitDy=0;entryX=1;entryY=0.75;entryDx=0;entryDy=0;" parent="1" source="fptTHiW4tIRju2CYhG-I-33" target="fptTHiW4tIRju2CYhG-I-33" edge="1">
          <mxGeometry width="50" height="50" relative="1" as="geometry">
            <mxPoint x="-380" y="10" as="sourcePoint" />
            <mxPoint x="-330" y="-40" as="targetPoint" />
          </mxGeometry>
        </mxCell>
        <mxCell id="fptTHiW4tIRju2CYhG-I-35" value="" style="endArrow=none;html=1;rounded=0;exitX=0;exitY=0.75;exitDx=0;exitDy=0;entryX=1;entryY=0.75;entryDx=0;entryDy=0;" parent="1" edge="1">
          <mxGeometry width="50" height="50" relative="1" as="geometry">
            <mxPoint x="-420" y="-20.5" as="sourcePoint" />
            <mxPoint x="-300" y="-20.5" as="targetPoint" />
          </mxGeometry>
        </mxCell>
        <mxCell id="fptTHiW4tIRju2CYhG-I-36" value="" style="endArrow=none;html=1;rounded=0;exitX=0;exitY=0.75;exitDx=0;exitDy=0;entryX=1;entryY=0.75;entryDx=0;entryDy=0;" parent="1" edge="1">
          <mxGeometry width="50" height="50" relative="1" as="geometry">
            <mxPoint x="-420" y="-55" as="sourcePoint" />
            <mxPoint x="-300" y="-55" as="targetPoint" />
          </mxGeometry>
        </mxCell>
        <mxCell id="fptTHiW4tIRju2CYhG-I-39" value="" style="endArrow=classic;html=1;rounded=0;exitX=0.5;exitY=1;exitDx=0;exitDy=0;" parent="1" source="fptTHiW4tIRju2CYhG-I-30" edge="1">
          <mxGeometry width="50" height="50" relative="1" as="geometry">
            <mxPoint x="-360" y="-130" as="sourcePoint" />
            <mxPoint x="-350" y="-140" as="targetPoint" />
          </mxGeometry>
        </mxCell>
        <mxCell id="fptTHiW4tIRju2CYhG-I-40" value="" style="endArrow=none;html=1;rounded=0;" parent="1" edge="1">
          <mxGeometry width="50" height="50" relative="1" as="geometry">
            <mxPoint x="-420" y="-90" as="sourcePoint" />
            <mxPoint x="-420" y="-150" as="targetPoint" />
          </mxGeometry>
        </mxCell>
        <mxCell id="fptTHiW4tIRju2CYhG-I-41" value="" style="endArrow=none;html=1;rounded=0;" parent="1" edge="1">
          <mxGeometry width="50" height="50" relative="1" as="geometry">
            <mxPoint x="-300" y="-90" as="sourcePoint" />
            <mxPoint x="-300" y="-150" as="targetPoint" />
          </mxGeometry>
        </mxCell>
        <mxCell id="fptTHiW4tIRju2CYhG-I-42" value="PC" style="rounded=0;whiteSpace=wrap;html=1;" parent="1" vertex="1">
          <mxGeometry x="-170" y="-232.5" width="110" height="42.5" as="geometry" />
        </mxCell>
        <mxCell id="fptTHiW4tIRju2CYhG-I-43" value="memory" style="rounded=0;whiteSpace=wrap;html=1;" parent="1" vertex="1">
          <mxGeometry x="-170" y="-162.5" width="110" height="42.5" as="geometry" />
        </mxCell>
        <mxCell id="fptTHiW4tIRju2CYhG-I-44" value="available gas" style="rounded=0;whiteSpace=wrap;html=1;" parent="1" vertex="1">
          <mxGeometry x="-170" y="-91.25" width="110" height="42.5" as="geometry" />
        </mxCell>
        <mxCell id="VW2L2mz2OAnhj1RZ-I4j-12" style="edgeStyle=orthogonalEdgeStyle;rounded=0;orthogonalLoop=1;jettySize=auto;html=1;" parent="1" source="VW2L2mz2OAnhj1RZ-I4j-5" target="VW2L2mz2OAnhj1RZ-I4j-7" edge="1">
          <mxGeometry relative="1" as="geometry" />
        </mxCell>
        <mxCell id="VW2L2mz2OAnhj1RZ-I4j-5" value="generate transaction" style="rounded=0;whiteSpace=wrap;html=1;" parent="1" vertex="1">
          <mxGeometry x="-410.5" y="1090" width="120" height="60" as="geometry" />
        </mxCell>
        <mxCell id="VW2L2mz2OAnhj1RZ-I4j-6" value="sign transaction" style="text;html=1;align=center;verticalAlign=middle;whiteSpace=wrap;rounded=0;fillColor=#f8cecc;strokeColor=#b85450;" parent="1" vertex="1">
          <mxGeometry x="-265.5" y="1000" width="210" height="40" as="geometry" />
        </mxCell>
        <mxCell id="VW2L2mz2OAnhj1RZ-I4j-7" value="evm node" style="rounded=0;whiteSpace=wrap;html=1;" parent="1" vertex="1">
          <mxGeometry x="-50.5" y="1090" width="120" height="60" as="geometry" />
        </mxCell>
        <mxCell id="VW2L2mz2OAnhj1RZ-I4j-8" value="data" style="text;html=1;align=center;verticalAlign=middle;whiteSpace=wrap;rounded=0;" parent="1" vertex="1">
          <mxGeometry x="-375.5" y="1350" width="60" height="30" as="geometry" />
        </mxCell>
        <mxCell id="VW2L2mz2OAnhj1RZ-I4j-16" value="privateKey" style="text;html=1;align=center;verticalAlign=middle;whiteSpace=wrap;rounded=0;" parent="1" vertex="1">
          <mxGeometry x="-380.5" y="1180" width="60" height="30" as="geometry" />
        </mxCell>
        <mxCell id="VW2L2mz2OAnhj1RZ-I4j-18" value="all info" style="text;html=1;align=center;verticalAlign=middle;whiteSpace=wrap;rounded=0;fillColor=#dae8fc;strokeColor=#6c8ebf;" parent="1" vertex="1">
          <mxGeometry x="-375.5" y="1250" width="60" height="30" as="geometry" />
        </mxCell>
        <mxCell id="VW2L2mz2OAnhj1RZ-I4j-20" value="signature" style="rounded=0;whiteSpace=wrap;html=1;" parent="1" vertex="1">
          <mxGeometry x="-405.5" y="1490" width="120" height="60" as="geometry" />
        </mxCell>
        <mxCell id="VW2L2mz2OAnhj1RZ-I4j-21" style="edgeStyle=orthogonalEdgeStyle;rounded=0;orthogonalLoop=1;jettySize=auto;html=1;entryX=1.022;entryY=0.561;entryDx=0;entryDy=0;entryPerimeter=0;exitX=1;exitY=0.5;exitDx=0;exitDy=0;" parent="1" source="VW2L2mz2OAnhj1RZ-I4j-16" target="VW2L2mz2OAnhj1RZ-I4j-17" edge="1">
          <mxGeometry relative="1" as="geometry">
            <Array as="points">
              <mxPoint x="-200.5" y="1195" />
              <mxPoint x="-200.5" y="1357" />
            </Array>
          </mxGeometry>
        </mxCell>
        <mxCell id="VW2L2mz2OAnhj1RZ-I4j-22" style="edgeStyle=orthogonalEdgeStyle;rounded=0;orthogonalLoop=1;jettySize=auto;html=1;entryX=1.013;entryY=0.633;entryDx=0;entryDy=0;entryPerimeter=0;exitX=0.989;exitY=0.6;exitDx=0;exitDy=0;exitPerimeter=0;" parent="1" source="VW2L2mz2OAnhj1RZ-I4j-17" target="VW2L2mz2OAnhj1RZ-I4j-20" edge="1">
          <mxGeometry relative="1" as="geometry">
            <Array as="points">
              <mxPoint x="-200.5" y="1364" />
              <mxPoint x="-200.5" y="1528" />
            </Array>
          </mxGeometry>
        </mxCell>
        <mxCell id="VW2L2mz2OAnhj1RZ-I4j-29" value="send" style="text;html=1;align=center;verticalAlign=middle;whiteSpace=wrap;rounded=0;" parent="1" vertex="1">
          <mxGeometry x="-210.5" y="1090" width="60" height="30" as="geometry" />
        </mxCell>
        <mxCell id="VW2L2mz2OAnhj1RZ-I4j-41" style="edgeStyle=orthogonalEdgeStyle;rounded=0;orthogonalLoop=1;jettySize=auto;html=1;entryX=1;entryY=0.5;entryDx=0;entryDy=0;exitX=1.007;exitY=0.426;exitDx=0;exitDy=0;exitPerimeter=0;" parent="1" source="VW2L2mz2OAnhj1RZ-I4j-30" target="VW2L2mz2OAnhj1RZ-I4j-34" edge="1">
          <mxGeometry relative="1" as="geometry">
            <Array as="points">
              <mxPoint x="149.5" y="1331" />
              <mxPoint x="149.5" y="1195" />
            </Array>
          </mxGeometry>
        </mxCell>
        <mxCell id="VW2L2mz2OAnhj1RZ-I4j-30" value="" style="rounded=0;whiteSpace=wrap;html=1;" parent="1" vertex="1">
          <mxGeometry x="-50.5" y="1250" width="135" height="190" as="geometry" />
        </mxCell>
        <mxCell id="VW2L2mz2OAnhj1RZ-I4j-31" value="data" style="text;html=1;align=center;verticalAlign=middle;whiteSpace=wrap;rounded=0;" parent="1" vertex="1">
          <mxGeometry x="-13" y="1350" width="60" height="30" as="geometry" />
        </mxCell>
        <mxCell id="VW2L2mz2OAnhj1RZ-I4j-32" value="to" style="text;html=1;align=center;verticalAlign=middle;whiteSpace=wrap;rounded=0;" parent="1" vertex="1">
          <mxGeometry x="-13" y="1300" width="60" height="30" as="geometry" />
        </mxCell>
        <mxCell id="VW2L2mz2OAnhj1RZ-I4j-33" value="...." style="text;html=1;align=center;verticalAlign=middle;whiteSpace=wrap;rounded=0;" parent="1" vertex="1">
          <mxGeometry x="-13" y="1399" width="60" height="30" as="geometry" />
        </mxCell>
        <mxCell id="VW2L2mz2OAnhj1RZ-I4j-34" value="publicKey" style="text;html=1;align=center;verticalAlign=middle;whiteSpace=wrap;rounded=0;" parent="1" vertex="1">
          <mxGeometry x="-18" y="1180" width="60" height="30" as="geometry" />
        </mxCell>
        <mxCell id="VW2L2mz2OAnhj1RZ-I4j-35" value="all info" style="text;html=1;align=center;verticalAlign=middle;whiteSpace=wrap;rounded=0;fillColor=#dae8fc;strokeColor=#6c8ebf;" parent="1" vertex="1">
          <mxGeometry x="-13" y="1250" width="60" height="30" as="geometry" />
        </mxCell>
        <mxCell id="VW2L2mz2OAnhj1RZ-I4j-40" style="edgeStyle=orthogonalEdgeStyle;rounded=0;orthogonalLoop=1;jettySize=auto;html=1;entryX=1;entryY=0.5;entryDx=0;entryDy=0;exitX=1;exitY=0.5;exitDx=0;exitDy=0;" parent="1" source="VW2L2mz2OAnhj1RZ-I4j-36" target="VW2L2mz2OAnhj1RZ-I4j-30" edge="1">
          <mxGeometry relative="1" as="geometry">
            <Array as="points">
              <mxPoint x="149.5" y="1520" />
              <mxPoint x="149.5" y="1345" />
            </Array>
          </mxGeometry>
        </mxCell>
        <mxCell id="VW2L2mz2OAnhj1RZ-I4j-36" value="signature" style="rounded=0;whiteSpace=wrap;html=1;" parent="1" vertex="1">
          <mxGeometry x="-43" y="1490" width="120" height="60" as="geometry" />
        </mxCell>
        <mxCell id="VW2L2mz2OAnhj1RZ-I4j-43" value="签名：&lt;div&gt;这个交易&lt;font color=&quot;#ff6666&quot;&gt;属于谁&lt;/font&gt;&lt;/div&gt;" style="text;html=1;align=center;verticalAlign=middle;whiteSpace=wrap;rounded=0;" parent="1" vertex="1">
          <mxGeometry x="-180.5" y="1325" width="100" height="40" as="geometry" />
        </mxCell>
        <mxCell id="VW2L2mz2OAnhj1RZ-I4j-44" value="to" style="text;html=1;align=center;verticalAlign=middle;whiteSpace=wrap;rounded=0;" parent="1" vertex="1">
          <mxGeometry x="-375.5" y="1309" width="60" height="30" as="geometry" />
        </mxCell>
        <mxCell id="VW2L2mz2OAnhj1RZ-I4j-45" value="...." style="text;html=1;align=center;verticalAlign=middle;whiteSpace=wrap;rounded=0;" parent="1" vertex="1">
          <mxGeometry x="-375.5" y="1390" width="60" height="30" as="geometry" />
        </mxCell>
        <mxCell id="VW2L2mz2OAnhj1RZ-I4j-87" value="sign message" style="text;html=1;align=center;verticalAlign=middle;whiteSpace=wrap;rounded=0;fillColor=#f8cecc;strokeColor=#b85450;" parent="1" vertex="1">
          <mxGeometry x="364.5" y="1000" width="210" height="40" as="geometry" />
        </mxCell>
        <mxCell id="VW2L2mz2OAnhj1RZ-I4j-89" value="privateKey" style="text;html=1;align=center;verticalAlign=middle;whiteSpace=wrap;rounded=0;" parent="1" vertex="1">
          <mxGeometry x="289.5" y="1104" width="70" height="40" as="geometry" />
        </mxCell>
        <mxCell id="VW2L2mz2OAnhj1RZ-I4j-90" style="edgeStyle=orthogonalEdgeStyle;rounded=0;orthogonalLoop=1;jettySize=auto;html=1;entryX=0.5;entryY=0;entryDx=0;entryDy=0;" parent="1" source="VW2L2mz2OAnhj1RZ-I4j-91" target="VW2L2mz2OAnhj1RZ-I4j-94" edge="1">
          <mxGeometry relative="1" as="geometry" />
        </mxCell>
        <mxCell id="VW2L2mz2OAnhj1RZ-I4j-91" value="all message" style="rounded=0;whiteSpace=wrap;html=1;" parent="1" vertex="1">
          <mxGeometry x="449.5" y="1094" width="130" height="60" as="geometry" />
        </mxCell>
        <mxCell id="VW2L2mz2OAnhj1RZ-I4j-92" value="privateKey" style="text;html=1;align=center;verticalAlign=middle;whiteSpace=wrap;rounded=0;" parent="1" vertex="1">
          <mxGeometry x="289.5" y="1244" width="70" height="40" as="geometry" />
        </mxCell>
        <mxCell id="VW2L2mz2OAnhj1RZ-I4j-93" style="edgeStyle=orthogonalEdgeStyle;rounded=0;orthogonalLoop=1;jettySize=auto;html=1;entryX=0.5;entryY=0;entryDx=0;entryDy=0;" parent="1" source="VW2L2mz2OAnhj1RZ-I4j-94" target="VW2L2mz2OAnhj1RZ-I4j-97" edge="1">
          <mxGeometry relative="1" as="geometry" />
        </mxCell>
        <mxCell id="VW2L2mz2OAnhj1RZ-I4j-94" value="encoded(all message)" style="rounded=0;whiteSpace=wrap;html=1;" parent="1" vertex="1">
          <mxGeometry x="449.5" y="1234" width="130" height="60" as="geometry" />
        </mxCell>
        <mxCell id="VW2L2mz2OAnhj1RZ-I4j-95" value="&lt;font color=&quot;#ff3333&quot;&gt;encode(EIP191,EIP712)&lt;/font&gt;" style="text;html=1;align=center;verticalAlign=middle;whiteSpace=wrap;rounded=0;" parent="1" vertex="1">
          <mxGeometry x="509.5" y="1174" width="250" height="30" as="geometry" />
        </mxCell>
        <mxCell id="VW2L2mz2OAnhj1RZ-I4j-96" value="privateKey" style="text;html=1;align=center;verticalAlign=middle;whiteSpace=wrap;rounded=0;" parent="1" vertex="1">
          <mxGeometry x="289.5" y="1374" width="70" height="40" as="geometry" />
        </mxCell>
        <mxCell id="VW2L2mz2OAnhj1RZ-I4j-97" value="hash(all message)" style="rounded=0;whiteSpace=wrap;html=1;" parent="1" vertex="1">
          <mxGeometry x="449.5" y="1364" width="130" height="60" as="geometry" />
        </mxCell>
        <mxCell id="VW2L2mz2OAnhj1RZ-I4j-98" value="hash(keccak)" style="text;html=1;align=center;verticalAlign=middle;whiteSpace=wrap;rounded=0;" parent="1" vertex="1">
          <mxGeometry x="517" y="1314" width="250" height="30" as="geometry" />
        </mxCell>
        <mxCell id="VW2L2mz2OAnhj1RZ-I4j-99" style="edgeStyle=orthogonalEdgeStyle;rounded=0;orthogonalLoop=1;jettySize=auto;html=1;entryX=0;entryY=0.5;entryDx=0;entryDy=0;" parent="1" source="VW2L2mz2OAnhj1RZ-I4j-100" target="VW2L2mz2OAnhj1RZ-I4j-102" edge="1">
          <mxGeometry relative="1" as="geometry" />
        </mxCell>
        <mxCell id="VW2L2mz2OAnhj1RZ-I4j-100" value="privateKey" style="text;html=1;align=center;verticalAlign=middle;whiteSpace=wrap;rounded=0;" parent="1" vertex="1">
          <mxGeometry x="289.5" y="1504" width="70" height="40" as="geometry" />
        </mxCell>
        <mxCell id="VW2L2mz2OAnhj1RZ-I4j-101" value="" style="edgeStyle=orthogonalEdgeStyle;rounded=0;orthogonalLoop=1;jettySize=auto;html=1;" parent="1" source="VW2L2mz2OAnhj1RZ-I4j-102" target="VW2L2mz2OAnhj1RZ-I4j-103" edge="1">
          <mxGeometry relative="1" as="geometry" />
        </mxCell>
        <mxCell id="VW2L2mz2OAnhj1RZ-I4j-102" value="hash(all message)" style="rounded=0;whiteSpace=wrap;html=1;" parent="1" vertex="1">
          <mxGeometry x="449.5" y="1494" width="130" height="60" as="geometry" />
        </mxCell>
        <mxCell id="VW2L2mz2OAnhj1RZ-I4j-103" value="signature" style="rounded=0;whiteSpace=wrap;html=1;" parent="1" vertex="1">
          <mxGeometry x="659.5" y="1494" width="130" height="60" as="geometry" />
        </mxCell>
        <mxCell id="VW2L2mz2OAnhj1RZ-I4j-104" value="sign" style="text;html=1;align=center;verticalAlign=middle;whiteSpace=wrap;rounded=0;" parent="1" vertex="1">
          <mxGeometry x="269.5" y="1494" width="250" height="30" as="geometry" />
        </mxCell>
        <mxCell id="VW2L2mz2OAnhj1RZ-I4j-105" value="purpose: dapp log in(verify account address own its privateKey)" style="text;html=1;align=center;verticalAlign=middle;whiteSpace=wrap;rounded=0;" parent="1" vertex="1">
          <mxGeometry x="649.5" y="1030" width="190" height="50" as="geometry" />
        </mxCell>
        <mxCell id="VW2L2mz2OAnhj1RZ-I4j-106" value="purpose: identify transaction&#39; sender" style="text;html=1;align=center;verticalAlign=middle;whiteSpace=wrap;rounded=0;" parent="1" vertex="1">
          <mxGeometry x="-5.5" y="1020" width="190" height="50" as="geometry" />
        </mxCell>
        <mxCell id="VW2L2mz2OAnhj1RZ-I4j-109" style="edgeStyle=orthogonalEdgeStyle;rounded=0;orthogonalLoop=1;jettySize=auto;html=1;" parent="1" source="VW2L2mz2OAnhj1RZ-I4j-107" target="VW2L2mz2OAnhj1RZ-I4j-87" edge="1">
          <mxGeometry relative="1" as="geometry" />
        </mxCell>
        <mxCell id="VW2L2mz2OAnhj1RZ-I4j-107" value="sign" style="text;html=1;align=center;verticalAlign=middle;whiteSpace=wrap;rounded=0;fillColor=#f8cecc;strokeColor=#b85450;" parent="1" vertex="1">
          <mxGeometry x="79.5" y="890" width="210" height="40" as="geometry" />
        </mxCell>
        <mxCell id="VW2L2mz2OAnhj1RZ-I4j-108" style="edgeStyle=orthogonalEdgeStyle;rounded=0;orthogonalLoop=1;jettySize=auto;html=1;entryX=0.467;entryY=-0.025;entryDx=0;entryDy=0;entryPerimeter=0;" parent="1" source="VW2L2mz2OAnhj1RZ-I4j-107" target="VW2L2mz2OAnhj1RZ-I4j-6" edge="1">
          <mxGeometry relative="1" as="geometry" />
        </mxCell>
        <mxCell id="MJajV-og7lZZCRrYSq15-2" value="" style="endArrow=classic;html=1;rounded=0;exitX=0;exitY=0;exitDx=0;exitDy=0;dashed=1;fillColor=#d5e8d4;strokeColor=#82b366;edgeStyle=orthogonalEdgeStyle;curved=1;entryX=0;entryY=0.5;entryDx=0;entryDy=0;" edge="1" parent="1" source="VW2L2mz2OAnhj1RZ-I4j-107" target="u2NYQz7fPt760Bf2LZsO-30">
          <mxGeometry width="50" height="50" relative="1" as="geometry">
            <mxPoint x="-60" y="810" as="sourcePoint" />
            <mxPoint x="-244" y="700" as="targetPoint" />
            <Array as="points">
              <mxPoint x="20" y="890" />
              <mxPoint x="20" y="818" />
              <mxPoint y="818" />
              <mxPoint y="808" />
              <mxPoint x="-10" y="808" />
              <mxPoint x="-10" y="750" />
              <mxPoint y="750" />
              <mxPoint y="720" />
              <mxPoint x="10" y="720" />
              <mxPoint x="10" y="550" />
            </Array>
          </mxGeometry>
        </mxCell>
        <mxCell id="MJajV-og7lZZCRrYSq15-7" style="edgeStyle=orthogonalEdgeStyle;rounded=0;orthogonalLoop=1;jettySize=auto;html=1;entryX=0.5;entryY=0;entryDx=0;entryDy=0;" edge="1" parent="1" source="MJajV-og7lZZCRrYSq15-3" target="MJajV-og7lZZCRrYSq15-6">
          <mxGeometry relative="1" as="geometry" />
        </mxCell>
        <mxCell id="MJajV-og7lZZCRrYSq15-3" value="提交给节点客户端的内容=交易数据字节码+签名&lt;br&gt;1. 客户端程序验证签名&lt;br&gt;2. 客户端程序仅将交易字节码发送给evm执行" style="rounded=0;whiteSpace=wrap;html=1;fillColor=#f8cecc;strokeColor=#b85450;" vertex="1" parent="1">
          <mxGeometry x="-630" y="445" width="290" height="110" as="geometry" />
        </mxCell>
        <mxCell id="MJajV-og7lZZCRrYSq15-4" value="" style="endArrow=classic;html=1;rounded=0;exitX=1;exitY=0.5;exitDx=0;exitDy=0;dashed=1;fillColor=#d5e8d4;strokeColor=#3399FF;edgeStyle=orthogonalEdgeStyle;curved=1;entryX=0;entryY=0.5;entryDx=0;entryDy=0;" edge="1" parent="1" source="MJajV-og7lZZCRrYSq15-3">
          <mxGeometry width="50" height="50" relative="1" as="geometry">
            <mxPoint x="90" y="900" as="sourcePoint" />
            <mxPoint x="200" y="560" as="targetPoint" />
            <Array as="points">
              <mxPoint x="-140" y="520" />
              <mxPoint x="30" y="520" />
              <mxPoint x="30" y="540" />
              <mxPoint x="20" y="540" />
              <mxPoint x="20" y="530" />
              <mxPoint x="10" y="530" />
              <mxPoint x="10" y="540" />
              <mxPoint x="20" y="540" />
              <mxPoint x="20" y="560" />
            </Array>
          </mxGeometry>
        </mxCell>
        <mxCell id="MJajV-og7lZZCRrYSq15-5" value="&lt;div&gt;{&lt;/div&gt;&lt;div&gt;&amp;nbsp; &quot;nonce&quot;: &quot;0x1&quot;,&lt;/div&gt;&lt;div&gt;&amp;nbsp; &quot;gasPrice&quot;: &quot;0x3b9aca00&quot;, // 1 Gwei&lt;/div&gt;&lt;div&gt;&amp;nbsp; &quot;gasLimit&quot;: &quot;0x5208&quot;, // 21000 gas&lt;/div&gt;&lt;div&gt;&amp;nbsp; &quot;to&quot;: &quot;0xRecipientAddressHere&quot;, // 接收者地址&lt;/div&gt;&lt;div&gt;&amp;nbsp; &quot;value&quot;: &quot;0xde0b6b3a7640000&quot;, // 1 ETH (1e18 wei)&lt;/div&gt;&lt;div&gt;&amp;nbsp; &quot;data&quot;: &quot;0x&quot;, // 没有附加数据&lt;/div&gt;&lt;div&gt;&amp;nbsp; &quot;v&quot;: &quot;0x1b&quot;, // 签名的恢复ID&lt;/div&gt;&lt;div&gt;&amp;nbsp; &quot;r&quot;: &quot;0x...&quot;, // 签名的r部分&lt;/div&gt;&lt;div&gt;&amp;nbsp; &quot;s&quot;: &quot;0x...&quot; // 签名的s部分&lt;/div&gt;&lt;div&gt;}&lt;/div&gt;&lt;div&gt;&lt;br&gt;&lt;/div&gt;" style="rounded=0;whiteSpace=wrap;html=1;" vertex="1" parent="1">
          <mxGeometry x="-625" y="660" width="285" height="210" as="geometry" />
        </mxCell>
        <mxCell id="MJajV-og7lZZCRrYSq15-6" value="交易" style="text;html=1;align=center;verticalAlign=middle;whiteSpace=wrap;rounded=0;" vertex="1" parent="1">
          <mxGeometry x="-515" y="630" width="60" height="30" as="geometry" />
        </mxCell>
      </root>
    </mxGraphModel>
  </diagram>
</mxfile>
